<svg xmlns="http://www.w3.org/2000/svg" viewBox="0 0 1200 630" width="1200" height="630">
  <defs>
    <linearGradient id="bg" x1="0" y1="0" x2="1" y2="1">
      <stop offset="0%" stop-color="#123250"/>
      <stop offset="100%" stop-color="#0a1f33"/>
    </linearGradient>
    <radialGradient id="t" cx="50%" cy="50%" r="50%">
      <stop offset="0%" stop-color="#29B6CC" stop-opacity="0.9"/>
      <stop offset="60%" stop-color="#29B6CC" stop-opacity="0.3"/>
      <stop offset="100%" stop-color="#29B6CC" stop-opacity="0"/>
    </radialGradient>
    <radialGradient id="b" cx="50%" cy="50%" r="50%">
      <stop offset="0%" stop-color="#00B0F0" stop-opacity="0.85"/>
      <stop offset="60%" stop-color="#00B0F0" stop-opacity="0.25"/>
      <stop offset="100%" stop-color="#00B0F0" stop-opacity="0"/>
    </radialGradient>
    <radialGradient id="c" cx="50%" cy="50%" r="50%">
      <stop offset="0%" stop-color="#EB7A63" stop-opacity="0.85"/>
      <stop offset="60%" stop-color="#EB7A63" stop-opacity="0.25"/>
      <stop offset="100%" stop-color="#EB7A63" stop-opacity="0"/>
    </radialGradient>
  </defs>

  <rect width="1200" height="630" fill="url(#bg)"/>

  <!-- street grid -->
  <g stroke="#21476b" stroke-width="2" opacity="0.5">
    <path d="M0 120 H1200 M0 250 H1200 M0 380 H1200 M0 510 H1200"/>
    <path d="M760 0 V630 M880 0 V630 M1000 0 V630 M1120 0 V630"/>
  </g>

  <!-- glowing blobs on the right -->
  <circle cx="880" cy="200" r="150" fill="url(#t)"/>
  <circle cx="1050" cy="160" r="120" fill="url(#b)"/>
  <circle cx="1010" cy="420" r="130" fill="url(#c)"/>
  <circle cx="850" cy="420" r="90" fill="url(#b)"/>
  <circle cx="880" cy="200" r="8" fill="#bdf2f8"/>
  <circle cx="1050" cy="160" r="8" fill="#cdeeff"/>
  <circle cx="1010" cy="420" r="8" fill="#ffd9cd"/>

  <!-- wordmark -->
  <g transform="translate(90,90)">
    <circle cx="14" cy="14" r="14" fill="#EB7A63"/>
    <text x="44" y="26" font-family="Inter, Arial, sans-serif" font-size="40" font-weight="800" fill="#ffffff">Orbit</text>
  </g>

  <!-- eyebrow -->
  <text x="90" y="270" font-family="Inter, Arial, sans-serif" font-size="24" font-weight="600" letter-spacing="4" fill="#29B6CC">SEE THE CITY'S SOCIAL WEATHER</text>

  <!-- headline -->
  <text x="88" y="350" font-family="Inter, Arial, sans-serif" font-size="76" font-weight="800" fill="#ffffff">Find your people</text>
  <text x="88" y="430" font-family="Inter, Arial, sans-serif" font-size="76" font-weight="800" fill="#ffffff">in the real world.</text>

  <!-- sub -->
  <text x="90" y="500" font-family="Inter, Arial, sans-serif" font-size="28" font-weight="400" fill="#cdd9e6">A live, anonymous map of where the right energy is</text>
  <text x="90" y="538" font-family="Inter, Arial, sans-serif" font-size="28" font-weight="400" fill="#cdd9e6">tonight. No account. No name. No tracking.</text>
</svg>
