<svg xmlns="http://www.w3.org/2000/svg" viewBox="0 0 1200 630" width="1200" height="630">
  <defs>
    <linearGradient id="bg" x1="0" y1="0" x2="1" y2="1">
      <stop offset="0%" stop-color="#20294f"/>
      <stop offset="100%" stop-color="#10153a"/>
    </linearGradient>
    <radialGradient id="t" cx="50%" cy="50%" r="50%">
      <stop offset="0%" stop-color="#3D7590" stop-opacity="0.95"/>
      <stop offset="60%" stop-color="#3D7590" stop-opacity="0.3"/>
      <stop offset="100%" stop-color="#3D7590" stop-opacity="0"/>
    </radialGradient>
    <radialGradient id="b" cx="50%" cy="50%" r="50%">
      <stop offset="0%" stop-color="#FDC43E" stop-opacity="0.9"/>
      <stop offset="60%" stop-color="#FDC43E" stop-opacity="0.25"/>
      <stop offset="100%" stop-color="#FDC43E" stop-opacity="0"/>
    </radialGradient>
    <radialGradient id="c" cx="50%" cy="50%" r="50%">
      <stop offset="0%" stop-color="#E4B486" stop-opacity="0.9"/>
      <stop offset="60%" stop-color="#E4B486" stop-opacity="0.25"/>
      <stop offset="100%" stop-color="#E4B486" stop-opacity="0"/>
    </radialGradient>
  </defs>

  <rect width="1200" height="630" fill="url(#bg)"/>

  <!-- street grid -->
  <g stroke="#2c376b" stroke-width="2" opacity="0.5">
    <path d="M0 120 H1200 M0 250 H1200 M0 380 H1200 M0 510 H1200"/>
    <path d="M760 0 V630 M880 0 V630 M1000 0 V630 M1120 0 V630"/>
  </g>

  <!-- glowing signals on the right -->
  <circle cx="880" cy="200" r="150" fill="url(#t)"/>
  <circle cx="1050" cy="160" r="120" fill="url(#b)"/>
  <circle cx="1010" cy="420" r="130" fill="url(#c)"/>
  <circle cx="850" cy="420" r="90" fill="url(#b)"/>
  <circle cx="880" cy="200" r="8" fill="#cfe2ec"/>
  <circle cx="1050" cy="160" r="8" fill="#fff0c2"/>
  <circle cx="1010" cy="420" r="8" fill="#f4e0c8"/>

  <!-- wordmark + logo -->
  <g transform="translate(86,70) scale(0.5)">
    <path d="M66.9 86.25 A40 40 0 1 1 78.28 78.28" fill="none" stroke="#3D7590" stroke-width="4" stroke-linecap="round"/>
    <circle cx="72.94" cy="82.77" r="3.2" fill="#3D7590"/>
    <path d="M52.18 74.9 A25 25 0 1 1 70.48 64.34" fill="none" stroke="#FDC43E" stroke-width="6.5" stroke-linecap="round"/>
    <path d="M49.04 60.96 A11 11 0 1 1 59.97 54.65" fill="none" stroke="#FDC43E" stroke-width="6.5" stroke-linecap="round"/>
    <circle cx="62.2" cy="27.04" r="8" fill="#FDC43E"/>
  </g>
  <text x="148" y="122" font-family="Inter, Arial, sans-serif" font-size="40" font-weight="800" fill="#ffffff">Orbit</text>

  <!-- eyebrow -->
  <text x="90" y="270" font-family="Inter, Arial, sans-serif" font-size="24" font-weight="600" letter-spacing="4" fill="#5E9BB5">SEE THE CITY'S SOCIAL WEATHER</text>

  <!-- headline -->
  <text x="88" y="350" font-family="Inter, Arial, sans-serif" font-size="76" font-weight="800" fill="#FBF8EF">Find your people</text>
  <text x="88" y="430" font-family="Inter, Arial, sans-serif" font-size="76" font-weight="800" fill="#FBF8EF">in the real world.</text>

  <!-- sub -->
  <text x="90" y="500" font-family="Inter, Arial, sans-serif" font-size="28" font-weight="400" fill="#d8d2c2">A live, anonymous map of where the right energy is</text>
  <text x="90" y="538" font-family="Inter, Arial, sans-serif" font-size="28" font-weight="400" fill="#d8d2c2">tonight. No account. No name. No tracking.</text>
</svg>
